<?xml version="1.0" encoding="UTF-8"?>
<svg width="39px" height="21px" viewBox="0 0 39 21" version="1.1" xmlns="http://www.w3.org/2000/svg" xmlns:xlink="http://www.w3.org/1999/xlink" xmlns:sketch="http://www.bohemiancoding.com/sketch/ns">
    <!-- Generator: Sketch 3.4.2 (15855) - http://www.bohemiancoding.com/sketch -->
    <title>Line Copy + Line + Oval 1 Copy Copy</title>
    <desc>Created with Sketch.</desc>
    <defs></defs>
    <g id="Page-1" stroke="none" stroke-width="1" fill="none" fill-rule="evenodd" sketch:type="MSPage">
        <g id="Artboard-1-Copy" sketch:type="MSArtboardGroup" transform="translate(-287.000000, -138.000000)" stroke="#508EF3" stroke-width="2">
            <g id="Group" sketch:type="MSLayerGroup" transform="translate(14.000000, 19.000000)">
                <g id="Line-Copy-+-Line-+-Oval-1-Copy-Copy" transform="translate(274.000000, 120.000000)" sketch:type="MSShapeGroup">
                    <path d="M34.3,8 L19.9,8" id="Line-Copy" stroke-linecap="round" stroke-linejoin="round" fill="#FFFFFF"></path>
                    <path d="M36.7,18 L22.3,18" id="Line" stroke-linecap="round" stroke-linejoin="round"></path>
                    <path d="M24.3941097,7.35483871 C24.2366385,3.26569143 20.9416619,0 16.9,0 C12.8583381,0 9.56336149,3.26569143 9.40589035,7.35483871 L5.40022721,7.35483871 C2.42670811,7.35483871 0,9.77384973 0,12.7578511 L0,12.9840844 C0,15.9660209 2.41776408,18.3870968 5.40022721,18.3870968 L25.1997728,18.3870968 C28.1732919,18.3870968 30.6,15.9680858 30.6,12.9840844 L30.6,12.7578511 C30.6,9.77591456 28.1822359,7.35483871 25.1997728,7.35483871 L24.3941097,7.35483871 Z" id="Oval-1" fill="#FFFFFF"></path>
                </g>
            </g>
        </g>
    </g>
</svg>